# xmcd
#
# Track frame offsets:
#	150
#	16205
#	37040
#	52292
#	68977
#	79955
#	94235
#	106282
#	116235
#	134060
#	151697
#	167377
#	181055
#	200610
#	215017
#	228990
#	239820
#	258505
#	272342
#	286492
#
# Disc length: 3951 seconds
#
# Revision: 1
# Processed by: cddbd v1.5PL3 Copyright (c) Steve Scherf et al.
# Submitted via: EasyCDDAExtractor 7.0.5.3
#
DISCID=2b0f6d14
DTITLE=Lea Laven - Suuret sävelet CD2
DYEAR=2001
DGENRE=Country
TTITLE0=Silmät sataa ikävää
TTITLE1=En saa sua mielestäin
TTITLE2=Kesää vain rakastan
TTITLE3=Johnny
TTITLE4=En kadu mitään
TTITLE5=Jambalaya
TTITLE6=Rakkauden kiertokulku
TTITLE7=Kuihtuu ruusu kauneinkin
TTITLE8=Hymni rakkaudelle
TTITLE9=Carmen
TTITLE10=Taivaan lahja
TTITLE11=Ravintolasta en löydä sua
TTITLE12=Loista yö
TTITLE13=Sudenkorento
TTITLE14=Muu on selvää sekundaa
TTITLE15=Surun harmaus
TTITLE16=Kuin kielletyssä videossa
TTITLE17=Nöyryys
TTITLE18=Pidetään yhdessä yötä
TTITLE19=Kappale 20
EXTD=
EXTT0=
EXTT1=
EXTT2=
EXTT3=
EXTT4=
EXTT5=
EXTT6=
EXTT7=
EXTT8=
EXTT9=
EXTT10=
EXTT11=
EXTT12=
EXTT13=
EXTT14=
EXTT15=
EXTT16=
EXTT17=
EXTT18=
EXTT19=
PLAYORDER=
